#define ac_width 14
#define ac_height 14
static unsigned char ac_bits[] = {
   0x00, 0x00, 0x00, 0x00, 0xe0, 0x07, 0x30, 0x04, 0x10, 0x3c, 0x10, 0x04,
   0x1f, 0x04, 0x1f, 0x04, 0x10, 0x04, 0x10, 0x3c, 0x30, 0x04, 0xe0, 0x07,
   0x00, 0x00, 0x00, 0x00 };
