#define ac_width 14
#define ac_height 14
static unsigned char ac_bits[] = {
   0x00, 0x00, 0x00, 0x00, 0xc0, 0x01, 0x20, 0x02, 0x10, 0x02, 0x10, 0x1e,
   0x1c, 0x02, 0x1c, 0x02, 0x10, 0x1e, 0x10, 0x02, 0x20, 0x02, 0xc0, 0x01,
   0x00, 0x00, 0x00, 0x00 };
