#define ac_01_width 14
#define ac_01_height 14
static unsigned char ac_01_bits[] = {
   0x80, 0x03, 0x80, 0x03, 0x60, 0x02, 0x18, 0x3e, 0x18, 0x3e, 0x1f, 0x02,
   0x1f, 0x02, 0x1f, 0x02, 0x1f, 0x02, 0x18, 0x3e, 0x60, 0x02, 0x60, 0x02,
   0x80, 0x03, 0x80, 0x03 };
