#define ac_width 14
#define ac_height 14
static unsigned char ac_bits[] = {
   0x80, 0x03, 0xf8, 0x03, 0x78, 0x02, 0x18, 0x3e, 0x18, 0x3e, 0x1f, 0x02,
   0x1f, 0x02, 0x1f, 0x02, 0x1f, 0x02, 0x18, 0x3e, 0x18, 0x3e, 0x78, 0x02,
   0xf8, 0x03, 0x80, 0x03 };
