#define bat_full_02_width 14
#define bat_full_02_height 14
static unsigned char bat_full_02_bits[] = {
   0x00, 0x00, 0x00, 0x00, 0xff, 0x0f, 0xff, 0x0f, 0x03, 0x08, 0xf3, 0x39,
   0xf3, 0x39, 0xf3, 0x39, 0xf3, 0x39, 0x03, 0x08, 0x03, 0x08, 0xff, 0x0f,
   0x00, 0x00, 0x00, 0x00 };
