#define bat_empty_width 14
#define bat_empty_height 14
static unsigned char bat_empty_bits[] = {
   0x00, 0x00, 0x00, 0x00, 0xff, 0x0f, 0xff, 0x0f, 0x03, 0x08, 0x03, 0x38,
   0x03, 0x38, 0x03, 0x38, 0x03, 0x38, 0x03, 0x08, 0x03, 0x08, 0xff, 0x0f,
   0x00, 0x00, 0x00, 0x00 };
