#define bat_full_width 14
#define bat_full_height 14
static unsigned char bat_full_bits[] = {
   0x00, 0x00, 0x00, 0x00, 0xff, 0x1f, 0x01, 0x10, 0xfd, 0x17, 0xfd, 0x37,
   0xfd, 0x37, 0xfd, 0x37, 0xfd, 0x37, 0xfd, 0x17, 0x01, 0x10, 0xff, 0x1f,
   0x00, 0x00, 0x00, 0x00 };
