#define bat_low_width 14
#define bat_low_height 14
static unsigned char bat_low_bits[] = {
   0x00, 0x00, 0x00, 0x00, 0xff, 0x0f, 0xff, 0x0f, 0x03, 0x08, 0x13, 0x38,
   0x13, 0x38, 0x13, 0x38, 0x13, 0x38, 0x03, 0x08, 0x03, 0x08, 0xff, 0x0f,
   0x00, 0x00, 0x00, 0x00 };
