#define cpu_width 14
#define cpu_height 14
static unsigned char cpu_bits[] = {
   0xe7, 0x39, 0xe7, 0x39, 0x03, 0x30, 0xf8, 0x07, 0xf8, 0x07, 0x1b, 0x36,
   0x1b, 0x36, 0x1b, 0x36, 0x1b, 0x36, 0xf8, 0x07, 0xf8, 0x07, 0x03, 0x30,
   0xe7, 0x39, 0xe7, 0x39 };
