#define cpu_width 14
#define cpu_height 14
static unsigned char cpu_bits[] = {
   0x00, 0x00, 0xe6, 0x19, 0x02, 0x10, 0xf8, 0x07, 0x08, 0x04, 0xea, 0x15,
   0xea, 0x15, 0xea, 0x15, 0xea, 0x15, 0x08, 0x04, 0xf8, 0x07, 0x02, 0x10,
   0xe6, 0x19, 0x00, 0x00 };
