/* XPM */
static char * en15_xpm[] = {
"24 24 4 1",
" 	c None",
".	c #FF0000",
"+	c #FFFFFF",
"@	c #0000FF",
"                        ",
"                        ",
"                        ",
"                        ",
"                        ",
"     ..+@@@+.+@@@+..    ",
"     +..+@@+.+@@+..+    ",
"     @+..+@+.+@+..+@    ",
"     @@+..++.++..+@@    ",
"     @@@+..+.+..+@@@    ",
"     @@@@+.+.+.+@@@@    ",
"     +++++++.+++++++    ",
"     ...............    ",
"     +++++++.+++++++    ",
"     @@@@+.+.+.+@@@@    ",
"     @@@+..+.+..+@@@    ",
"     @@+..++.++..+@@    ",
"     @+..+@+.+@+..+@    ",
"     +..+@@+.+@@+..+    ",
"     ..+@@@+.+@@@+..    ",
"                        ",
"                        ",
"                        ",
"                        "};
