/* XPM */
static char * lang_ru_xpm[] = {
"20 20 4 1",
" 	c None",
".	c #FDF6E3",
"+	c #268BD2",
"@	c #DC322F",
"                    ",
" .................. ",
" .................. ",
" .................. ",
" .................. ",
" .................. ",
" .................. ",
" ++++++++++++++++++ ",
" ++++++++++++++++++ ",
" ++++++++++++++++++ ",
" ++++++++++++++++++ ",
" ++++++++++++++++++ ",
" ++++++++++++++++++ ",
" @@@@@@@@@@@@@@@@@@ ",
" @@@@@@@@@@@@@@@@@@ ",
" @@@@@@@@@@@@@@@@@@ ",
" @@@@@@@@@@@@@@@@@@ ",
" @@@@@@@@@@@@@@@@@@ ",
" @@@@@@@@@@@@@@@@@@ ",
"                    "};
