/* XPM */
static char * lang_ru_xpm[] = {
"20 20 110 2",
"  	c None",
". 	c #979797",
"+ 	c #A5A5A5",
"@ 	c #AEAEAE",
"# 	c #969696",
"$ 	c #868686",
"% 	c #9A9A9A",
"& 	c #B8B8B8",
"* 	c #D0D0D0",
"= 	c #DBDBDB",
"- 	c #E0E0E0",
"; 	c #DCDCDC",
"> 	c #A4A4A4",
", 	c #C8C8C8",
"' 	c #D6D6D6",
") 	c #DDDDDD",
"! 	c #DFDFDF",
"~ 	c #D7D7D7",
"{ 	c #A2A2A2",
"] 	c #C7C7C7",
"^ 	c #D4D4D4",
"/ 	c #D9D9D9",
"( 	c #D8D8D8",
"_ 	c #D2D2D2",
": 	c #959595",
"< 	c #BCBCBC",
"[ 	c #C9C9C9",
"} 	c #CDCDCD",
"| 	c #D1D1D1",
"1 	c #CBCBCB",
"2 	c #A8A8A8",
"3 	c #C1C1C1",
"4 	c #CFCFCF",
"5 	c #C2C2C2",
"6 	c #AAAAAA",
"7 	c #3261E8",
"8 	c #4474FC",
"9 	c #4D7FFF",
"0 	c #5783FF",
"a 	c #6089FE",
"b 	c #668DFE",
"c 	c #6C95FE",
"d 	c #5B85FD",
"e 	c #467AFC",
"f 	c #3266EA",
"g 	c #2253AE",
"h 	c #2F62F3",
"i 	c #396CFF",
"j 	c #4978FF",
"k 	c #5887FE",
"l 	c #517EFF",
"m 	c #4B7EFF",
"n 	c #4374FF",
"o 	c #4078DE",
"p 	c #4880E6",
"q 	c #4F85E7",
"r 	c #5589E9",
"s 	c #5B8DE9",
"t 	c #5E90EA",
"u 	c #6493EA",
"v 	c #6292EA",
"w 	c #2255B2",
"x 	c #2855D4",
"y 	c #4F7AF7",
"z 	c #5983FD",
"A 	c #648CFE",
"B 	c #7296FE",
"C 	c #789AFE",
"D 	c #7A9FFE",
"E 	c #5080F8",
"F 	c #2956D7",
"G 	c #EA544C",
"H 	c #FB6B63",
"I 	c #FE736C",
"J 	c #FE8178",
"K 	c #FE8880",
"L 	c #FF9087",
"M 	c #FD8681",
"N 	c #FE807A",
"O 	c #FE7066",
"P 	c #EC584C",
"Q 	c #B61C10",
"R 	c #C32C25",
"S 	c #F16F65",
"T 	c #FB8077",
"U 	c #FF978F",
"V 	c #FF9893",
"W 	c #FF948B",
"X 	c #C62F24",
"Y 	c #C3382D",
"Z 	c #EC746E",
"` 	c #F9908B",
" .	c #FC9D96",
"..	c #FEA19A",
"+.	c #FEA6A0",
"@.	c #FB958D",
"#.	c #C5322B",
"$.	c #B2251E",
"%.	c #D75E55",
"&.	c #EE8984",
"*.	c #F6A49E",
"=.	c #FAACA8",
"-.	c #F8A59E",
";.	c #D85D54",
">.	c #B4271C",
",.	c #AC231C",
"'.	c #BD3F35",
").	c #C65148",
"!.	c #AB221B",
"~.	c #920E04",
"                                        ",
"              . + @ @ + # $             ",
"          % & * = - - ; * & %           ",
"        > , ' = ) ! ! ) = ~ , >         ",
"      { ] * ^ ~ / = = = ( ^ _ ] {       ",
"    : < [ } | ^ ~ ~ ~ ^ ^ _ } 1 < #     ",
"    2 3 ] 1 } 4 | _ _ _ 4 } 1 ] 5 6     ",
"    7 8 9 0 a b b c c c b a d 9 e f     ",
"  g h i 8 j 9 0 d a d d k l m n i h g   ",
"  g o p q r s t u u v v t s r q p o w   ",
"  g o p q r s t u u v v t s r q p o w   ",
"  g h i 8 j 9 0 d a d d k l m n i h g   ",
"    7 8 9 0 a b b c c c b a d 9 e f     ",
"    x y z A c B C D D D B c b d E F     ",
"      G H I J K L L L M M N I O P Q     ",
"      R S T M L U V V V W M N S X       ",
"        Y Z `  ...+.+... .@.Z #.        ",
"          $.%.&.*.=.=.-.&.;.>.          ",
"              ,.'.).).'.!.~.            ",
"                                        "};
