/* XPM */
static char * lang_us_xpm[] = {
"20 20 4 1",
" 	c None",
".	c #3C3B6E",
"+	c #B22234",
"@	c #FFFFFF",
"                    ",
" ..........++++++++ ",
" ..........++++++++ ",
" ..........@@@@@@@@ ",
" ..........@@@@@@@@ ",
" ..........++++++++ ",
" ..........++++++++ ",
" ..........@@@@@@@@ ",
" ..........@@@@@@@@ ",
" ..........++++++++ ",
" ..........++++++++ ",
" @@@@@@@@@@@@@@@@@@ ",
" @@@@@@@@@@@@@@@@@@ ",
" ++++++++++++++++++ ",
" ++++++++++++++++++ ",
" @@@@@@@@@@@@@@@@@@ ",
" @@@@@@@@@@@@@@@@@@ ",
" ++++++++++++++++++ ",
" ++++++++++++++++++ ",
"                    "};
