/* XPM */
static char * lang_ua_xpm[] = {
"20 20 3 1",
" 	c None",
".	c #268BD2",
"+	c #FFC000",
"                    ",
" .................. ",
" .................. ",
" .................. ",
" .................. ",
" .................. ",
" .................. ",
" .................. ",
" .................. ",
" .................. ",
" ++++++++++++++++++ ",
" ++++++++++++++++++ ",
" ++++++++++++++++++ ",
" ++++++++++++++++++ ",
" ++++++++++++++++++ ",
" ++++++++++++++++++ ",
" ++++++++++++++++++ ",
" ++++++++++++++++++ ",
" ++++++++++++++++++ ",
"                    "};
