/* XPM */
static char * lang_us_xpm[] = {
"20 20 165 2",
"  	c None",
". 	c #8B7699",
"+ 	c #B85B6F",
"@ 	c #C46D7D",
"# 	c #C36C7D",
"$ 	c #BA586B",
"% 	c #7C8AB3",
"& 	c #9FAAC8",
"* 	c #CCCDDE",
"= 	c #F2E7EA",
"- 	c #F7EEEF",
"; 	c #F4E7E9",
"> 	c #EAD1D5",
", 	c #DFCACD",
"' 	c #7F8DB5",
") 	c #BBC3D9",
"! 	c #D7D5E4",
"~ 	c #F2D9DF",
"{ 	c #F4DDE1",
"] 	c #F4DADF",
"^ 	c #EDD7DA",
"/ 	c #EAD3D8",
"( 	c #CFA0A9",
"_ 	c #7C8AB2",
": 	c #B5BED7",
"< 	c #C0C8DF",
"[ 	c #B4C0E0",
"} 	c #EAABB7",
"| 	c #E9ABB7",
"1 	c #E5ABB6",
"2 	c #E3ABB6",
"3 	c #D99CA8",
"4 	c #B24E60",
"5 	c #596DA6",
"6 	c #98A3C6",
"7 	c #B2BCD8",
"8 	c #B3BEDC",
"9 	c #C8CEE7",
"0 	c #F7EEF0",
"a 	c #FCF1F3",
"b 	c #FCF3F5",
"c 	c #FAF0F1",
"d 	c #FDEDF0",
"e 	c #E8DADC",
"f 	c #6072A5",
"g 	c #9BA8CB",
"h 	c #A5B1D5",
"i 	c #A8B5DB",
"j 	c #AAB9E1",
"k 	c #BAB6DB",
"l 	c #F4B5C4",
"m 	c #FAB6C3",
"n 	c #F8B6C3",
"o 	c #F5B5C2",
"p 	c #F1B4C0",
"q 	c #EDB4BF",
"r 	c #E8B2BD",
"s 	c #BD7280",
"t 	c #55679C",
"u 	c #92A0C8",
"v 	c #99A7D2",
"w 	c #9CACDA",
"x 	c #A2B3E1",
"y 	c #B6A9D5",
"z 	c #F3879E",
"A 	c #FB869C",
"B 	c #F7859B",
"C 	c #F28599",
"D 	c #EB8497",
"E 	c #E38395",
"F 	c #DC8293",
"G 	c #D37D8D",
"H 	c #B54459",
"I 	c #913243",
"J 	c #4C5F98",
"K 	c #8192C2",
"L 	c #8C9ECF",
"M 	c #92A4D9",
"N 	c #95A9E3",
"O 	c #ADBCED",
"P 	c #FAF1F6",
"Q 	c #FFF5F6",
"R 	c #F4E7EA",
"S 	c #E9DDDF",
"T 	c #C4BABB",
"U 	c #5368A4",
"V 	c #6B7FB9",
"W 	c #7F93CB",
"X 	c #859AD7",
"Y 	c #89A2E4",
"Z 	c #A89CD7",
"` 	c #F97D9A",
" .	c #FF7C98",
"..	c #FC7B94",
"+.	c #F27A91",
"@.	c #E8798E",
"#.	c #DE788B",
"$.	c #D0667A",
"%.	c #CC5B70",
"&.	c #A24657",
"*.	c #7886AE",
"=.	c #7F8FB9",
"-.	c #8A9BC8",
";.	c #9BABD8",
">.	c #A5BAEC",
",.	c #BFADDA",
"'.	c #FB7894",
").	c #FF7592",
"!.	c #FB748E",
"~.	c #F1738B",
"{.	c #E67188",
"].	c #DB6D82",
"^.	c #BE5165",
"/.	c #A04354",
"(.	c #D7CDCF",
"_.	c #E5D9DC",
":.	c #FAEAED",
"<.	c #FBEBEE",
"[.	c #FFEEF1",
"}.	c #BCB1B2",
"|.	c #A6354A",
"1.	c #AD2F46",
"2.	c #BA324B",
"3.	c #C6344F",
"4.	c #D23653",
"5.	c #DE3857",
"6.	c #E93B5B",
"7.	c #F23C5E",
"8.	c #F73D5F",
"9.	c #AE3047",
"0.	c #802A3A",
"a.	c #BC6A78",
"b.	c #CB7685",
"c.	c #D77D8D",
"d.	c #E88194",
"e.	c #EE8296",
"f.	c #F68499",
"g.	c #B56473",
"h.	c #F8DFE3",
"i.	c #F6E6E9",
"j.	c #E0CBCE",
"k.	c #A02239",
"l.	c #AC223B",
"m.	c #B3233D",
"n.	c #BB243F",
"o.	c #C12441",
"p.	c #C62542",
"q.	c #C92543",
"r.	c #932035",
"s.	c #BB7D87",
"t.	c #CF949E",
"u.	c #D79AA5",
"v.	c #DD9FAA",
"w.	c #E2A3AE",
"x.	c #E4A4AF",
"y.	c #AD717B",
"z.	c #CFADB2",
"A.	c #D7AEB5",
"B.	c #DBB3B9",
"C.	c #DEB5BC",
"D.	c #CCACB1",
"E.	c #AEA7A8",
"F.	c #8F0F27",
"G.	c #880E25",
"H.	c #760E22",
"                                        ",
"              . + @ # $                 ",
"          % & * = - - ; > ,             ",
"        ' ) ! ! ~ { ] ] ^ ~ / (         ",
"      _ : < [ * } | } } | 1 2 3 4       ",
"    5 6 7 8 8 9 0 a b c d d c 0 e       ",
"    f g h i j k l m m n o p q r 2 s     ",
"  t f u v w x y z A A B C D E F G H I   ",
"  J 5 K L M N O P Q Q Q Q Q Q P R S T   ",
"  J U V W X Y Z `  . . ...+.@.#.$.%.&.  ",
"  *.=.-.;.x >.,.'.).).).!.~.{.].%.^./.  ",
"  (._.; :.- d <.d [.[.[.d <.- :.; e }.  ",
"  |.1.2.3.4.5.6.7.8.8.7.6.6.4.3.2.9.0.  ",
"    a.b.c.E d.e.f.f.f.f.e.d.#.G b.g.    ",
"      , ^ ] { { h.h.i.] { { i./ j.      ",
"      k.l.m.n.o.p.q.q.q.o.n.m.l.r.      ",
"        s.t.u.v.w.x.x.w.v.u.t.y.        ",
"          T z.A.B.C.C.B.A.D.E.          ",
"                F.F.F.G.H.              ",
"                                        "};
