/* XPM */
static char *ua[] = {
/* columns rows colors chars-per-pixel */
"20 20 241 2",
"   c #797900",
".  c #8B8B00",
"X  c #8E8E00",
"o  c #8F8F00",
"O  c #949400",
"+  c #959500",
"@  c #979700",
"#  c #969602",
"$  c #999900",
"%  c #989802",
"&  c #ACAC02",
"*  c #B1B101",
"=  c #B6B601",
"-  c #BABA02",
";  c #BEBD04",
":  c #B2B20C",
">  c #B3B30C",
",  c #B9B90A",
"<  c #BCBC0A",
"1  c #ABBA22",
"2  c #AEBD22",
"3  c #C2C104",
"4  c #C9C904",
"5  c #CCCC07",
"6  c #CACA0A",
"7  c #CDCD0D",
"8  c #D6D604",
"9  c #D9D905",
"0  c #C3C31A",
"q  c #C4C41C",
"w  c #E9E907",
"e  c #E8E80B",
"r  c #EAEA0B",
"t  c #EBEB0D",
"y  c #F6F60B",
"u  c #EEEE12",
"i  c #EBEB1F",
"p  c #F2F112",
"a  c #F4F313",
"s  c #F7F710",
"d  c #FBFB11",
"f  c #FAFA12",
"g  c #FCFC14",
"h  c #FEFE14",
"j  c #F0F01B",
"k  c #FBFB1B",
"l  c #FEFE18",
"z  c #FFFF18",
"x  c #FFFE19",
"c  c #FEFE1B",
"v  c #FBFB1F",
"b  c #FFFF1D",
"n  c #FEFE1E",
"m  c #FFFF1E",
"M  c #CCCC25",
"N  c #CCCC26",
"B  c #DADA21",
"V  c #DCDC26",
"C  c #D8E939",
"Z  c #DAEA3A",
"A  c #ECEC28",
"S  c #FFFF20",
"D  c #FFFF21",
"F  c #FFFF25",
"G  c #FFFF26",
"H  c #FFFF27",
"J  c #FBFB2A",
"K  c #FFFF28",
"L  c #FFFF29",
"P  c #FFFF2A",
"I  c #FEFE2D",
"U  c #FFFF2D",
"Y  c #FFFF2F",
"T  c #EBEB3A",
"R  c #F7F731",
"E  c #FFFF30",
"W  c #FFFF32",
"Q  c #FFFF34",
"!  c #FFFF35",
"~  c #FFFF36",
"^  c #FEFE37",
"/  c #FFFF37",
"(  c #FFFF38",
")  c #FFFF39",
"_  c #FFFF3B",
"`  c #F8F83C",
"'  c #FFFF3C",
"]  c #FFFF3D",
"[  c #FCFC3E",
"{  c #FFFF3E",
"}  c #FFFF3F",
"|  c #ECEC42",
" . c #E2F340",
".. c #E2F341",
"X. c #E4F446",
"o. c #E4F447",
"O. c #E5F54B",
"+. c #E5F54D",
"@. c #FFFF41",
"#. c #FFFF42",
"$. c #FFFF43",
"%. c #FFFF44",
"&. c #F3F34C",
"*. c #FCFC48",
"=. c #FFFF48",
"-. c #FEFE49",
";. c #FFFF49",
":. c #FFFF4B",
">. c #E6F550",
",. c #E6F552",
"<. c #E6F555",
"1. c #E6F557",
"2. c #E7F559",
"3. c #E7F55A",
"4. c #E7F55B",
"5. c #E7F55C",
"6. c #F3F354",
"7. c #F6F657",
"8. c #FEFE51",
"9. c #FEFE54",
"0. c #F6F65B",
"q. c #015893",
"w. c #025993",
"e. c #045992",
"r. c #005A96",
"t. c #076CAE",
"y. c #086AAA",
"u. c #1B72AB",
"i. c #1C72AB",
"p. c #0C75BC",
"a. c #1171B1",
"s. c #1073B5",
"d. c #1E77B2",
"f. c #1C77B4",
"g. c #0C77C0",
"h. c #2283AE",
"j. c #2285B2",
"k. c #3586BD",
"l. c #3487BD",
"z. c #2584C3",
"x. c #2485C6",
"c. c #2D87C3",
"v. c #2B88C5",
"b. c #288FD4",
"n. c #2891D7",
"m. c #3EABDC",
"M. c #3FACDE",
"N. c #329FE8",
"B. c #32A1EA",
"V. c #2DA2F2",
"C. c #2EA4F4",
"Z. c #37AEFE",
"A. c #39AFFF",
"S. c #4793C6",
"D. c #55A3D7",
"F. c #54A3D8",
"G. c #4BABEA",
"H. c #4CACEC",
"J. c #46B4E6",
"K. c #47B5E6",
"L. c #4DB8E8",
"P. c #4EB8E8",
"I. c #54BBE9",
"U. c #55BBE9",
"Y. c #59BDE9",
"T. c #5ABDE9",
"R. c #5EBFEA",
"E. c #43B2FC",
"W. c #40B3FF",
"Q. c #42B3FF",
"!. c #45B3FC",
"~. c #4EB4F8",
"^. c #4FB5F8",
"/. c #49B6FF",
"(. c #4AB7FF",
"). c #4DB8FF",
"_. c #4FB8FF",
"`. c #50B9FF",
"'. c #51B9FF",
"]. c #55BBFF",
"[. c #56BBFF",
"{. c #57BCFF",
"}. c #58BBFE",
"|. c #59BCFE",
" X c #59BDFF",
".X c #5ABDFF",
"XX c #5BBDFF",
"oX c #5BBEFF",
"OX c #5EBEFF",
"+X c #5FBFFF",
"@X c #6EBAEC",
"#X c #6EBBEE",
"$X c #64B8F1",
"%X c #65B9F2",
"&X c #62BEFB",
"*X c #64BFFC",
"=X c #61C0EA",
"-X c #63C0EA",
";X c #63C1EB",
":X c #62C0FF",
">X c #63C1FF",
",X c #64C1FF",
"<X c #65C1FF",
"1X c #69C3FF",
"2X c #6AC4FF",
"3X c #6BC4FF",
"4X c #6CC4FE",
"5X c #6CC4FF",
"6X c #6EC5FE",
"7X c #71C6FF",
"8X c #72C7FF",
"9X c #76C6FC",
"0X c #78C7FC",
"qX c #76C8FF",
"wX c #77C9FF",
"eX c #79CAFF",
"rX c #7ECBFF",
"tX c #7FCCFF",
"yX c #84C4EE",
"uX c #85C4EE",
"iX c #80CCFE",
"pX c #81CCFE",
"aX c #84CEFF",
"sX c #87CFFF",
"dX c #8ACEFA",
"fX c #8CCEFB",
"gX c #89D0FF",
"hX c #8AD0FF",
"jX c #8FD2FF",
"kX c #9DD3F7",
"lX c #93D3FD",
"zX c #90D3FF",
"xX c #95D3FD",
"cX c #93D4FF",
"vX c #9ED4F8",
"bX c #9AD6FE",
"nX c #9BD6FE",
"mX c #9ED8FF",
"MX c #A7D9FA",
"NX c #A7D9FB",
"BX c None",
/* pixels */
"BXBXBXBXBXBXBXBXBXBXBXBXBXBXBXBXBXBXBXBX",
"BXBXBXBXBXBXBXi.k.S.S.k.u.e.BXBXBXBXBXBX",
"BXBXBXBXBXd.D.yXkXMXMXvXyXF.f.BXBXBXBXBX",
"BXBXBXBXc.@XdXxXbXmXmXbXxXfX@Xv.q.BXBXBX",
"BXBXBXz.$X9XiXsXjXcXcXcXhXiXeX$Xx.BXBXBX",
"BXBXa.G.&X4XqXrXsXsXsXiXiXeX4X,XH.s.BXBX",
"BXq.b.~.}.:X2X7XqXeXeXeX7X4X,X|.^.n.r.BX",
"BXy.N.E.).[.OX,X,X2X4X2X,XOX|.).!.B.t.BX",
"BXp.C.A.E./.).[.|.OX|.|.{.'.(.Q.A.C.g.BX",
"BXh.M.K.P.I.T.R.-X-X=X=XR.T.U.P.K.M.j.BX",
"BX1 C Z X.O.,.1.2.2.5.2.1.,.+.o. .Z 2 BX",
"BX; p c b G Y E ) ' ' ' / E K S c a 3 BX",
"BX& e d c S K / ) ' ' ' / Y G b f t * BX",
"BX+ 8 y h b K E ) ' @.' ) Y G c f 9 % BX",
"BXBX= w f b K / ' %.%.@.' E G k t - BXBX",
"BXBX. 4 u v Y ) @.=.:.=.@./ G i 4 O BXBX",
"BXBXBX+ 6 A R ) =.8.9.8.*.` A 7 + BXBXBX",
"BXBXBXBX. , B T &.7.0.6.| V < X BXBXBXBX",
"BXBXBXBXBXBXO : 0 N N q > % BXBXBXBXBXBX",
"BXBXBXBXBXBXBXBXBX    BXBXBXBXBXBXBXBXBX"
};
