/* XPM */
static char * lang_ru_xpm[] = {
"20 20 2 1",
" 	c None",
".	c #93A1A1",
"                    ",
"                    ",
"                    ",
"  ......            ",
"  .     .           ",
"  .     .           ",
"  .     .  .     .  ",
"  .     .  .     .  ",
"  .     .  .     .  ",
"  ......   .     .  ",
"  .     .  .     .  ",
"  .     .  .     .  ",
"  .     .  .     .  ",
"  .     .  .    ..  ",
"  .     .   .... .  ",
"                    ",
"                    ",
"                    ",
"                    ",
"                    "};
