/* XPM */
static char * layout_circ_xpm[] = {
"20 20 2 1",
" 	c None",
".	c #586E75",
"                    ",
"                    ",
"                    ",
"      .......       ",
"      .     .       ",
"      .     .       ",
"    ...........     ",
" ....         ....  ",
" .  .         .  .  ",
" .  .         .  .  ",
" .  .         .  .  ",
" .  .         .  .  ",
" ....         ....  ",
"    .         .     ",
"    ...........     ",
"      .     .       ",
"      .     .       ",
"      .......       ",
"                    ",
"                    "};
