/* XPM */
static char * layout_rtall_xpm[] = {
"20 20 2 1",
" 	c None",
".	c #586E75",
"                    ",
"                    ",
"                    ",
"                    ",
"  ...............   ",
"  .             .   ",
"  .             .   ",
"  .             .   ",
"  .             .   ",
"  .             .   ",
"  .             .   ",
"  ...............   ",
"  .             .   ",
"  .             .   ",
"  .             .   ",
"  .             .   ",
"  ...............   ",
"                    ",
"                    ",
"                    "};
