/* XPM */
static char * layout_mtall_xpm[] = {
"32 32 2 1",
" 	c None",
".	c #586E75",
"                                ",
"                                ",
"                                ",
"                                ",
"                                ",
"                                ",
"                                ",
"                                ",
"                                ",
"         ...............        ",
"         .             .        ",
"         .             .        ",
"         .             .        ",
"         .             .        ",
"         .             .        ",
"         .             .        ",
"         .             .        ",
"         ...............        ",
"         .             .        ",
"         .             .        ",
"         .             .        ",
"         .             .        ",
"         ...............        ",
"                                ",
"                                ",
"                                ",
"                                ",
"                                ",
"                                ",
"                                ",
"                                ",
"                                "};
