#define mem_width 14
#define mem_height 14
static unsigned char mem_bits[] = {
   0x00, 0x00, 0x6c, 0x1b, 0x6c, 0x1b, 0x00, 0x00, 0xfc, 0x1f, 0xfc, 0x1f,
   0xfc, 0x1f, 0xfc, 0x1f, 0xfc, 0x1f, 0xfc, 0x1f, 0x00, 0x00, 0x6c, 0x1b,
   0x6c, 0x1b, 0x00, 0x00 };
