/* XPM */
static char * ru15_xpm[] = {
"24 24 4 1",
" 	c None",
".	c #FFFFFF",
"+	c #0000FF",
"@	c #FF0000",
"                        ",
"                        ",
"                        ",
"                        ",
"                        ",
"     ...............    ",
"     ...............    ",
"     ...............    ",
"     ...............    ",
"     ...............    ",
"     +++++++++++++++    ",
"     +++++++++++++++    ",
"     +++++++++++++++    ",
"     +++++++++++++++    ",
"     +++++++++++++++    ",
"     @@@@@@@@@@@@@@@    ",
"     @@@@@@@@@@@@@@@    ",
"     @@@@@@@@@@@@@@@    ",
"     @@@@@@@@@@@@@@@    ",
"     @@@@@@@@@@@@@@@    ",
"                        ",
"                        ",
"                        ",
"                        "};
