#define temp_width 14
#define temp_height 14
static unsigned char temp_bits[] = {
   0x00, 0x00, 0xe0, 0x0e, 0xa0, 0x00, 0xa0, 0x0e, 0xa0, 0x00, 0xa0, 0x06,
   0xe0, 0x00, 0xe0, 0x00, 0xf8, 0x03, 0x48, 0x02, 0xe8, 0x02, 0x08, 0x02,
   0xf8, 0x03, 0x00, 0x00 };
