/* XPM */
static char * ua15_xpm[] = {
"24 24 3 1",
" 	c None",
".	c #00F2FF",
"+	c #FFFA00",
"                        ",
"                        ",
"                        ",
"                        ",
"                        ",
"     ...............    ",
"     ...............    ",
"     ...............    ",
"     ...............    ",
"     ...............    ",
"     ...............    ",
"     ...............    ",
"     ...............    ",
"     +++++++++++++++    ",
"     +++++++++++++++    ",
"     +++++++++++++++    ",
"     +++++++++++++++    ",
"     +++++++++++++++    ",
"     +++++++++++++++    ",
"     +++++++++++++++    ",
"                        ",
"                        ",
"                        ",
"                        "};
