#define volume_width 14
#define volume_height 14
static unsigned char volume_bits[] = {
   0x00, 0x00, 0x60, 0x00, 0x50, 0x10, 0x48, 0x10, 0x46, 0x14, 0x42, 0x14,
   0x42, 0x15, 0x42, 0x15, 0x42, 0x14, 0x46, 0x14, 0x48, 0x10, 0x50, 0x10,
   0x60, 0x00, 0x00, 0x00 };
