#define volume_width 14
#define volume_height 14
static unsigned char volume_bits[] = {
   0x40, 0x00, 0x60, 0x00, 0x70, 0x00, 0x78, 0x08, 0x7f, 0x10, 0x7f, 0x36,
   0x7f, 0x36, 0x7f, 0x36, 0x7f, 0x36, 0x7f, 0x10, 0x78, 0x08, 0x70, 0x00,
   0x60, 0x00, 0x40, 0x00 };
