#define volume_width 14
#define volume_height 14
static unsigned char volume_bits[] = {
   0x00, 0x00, 0x20, 0x00, 0x30, 0x06, 0x38, 0x0c, 0x2e, 0x0b, 0x22, 0x0a,
   0x22, 0x0a, 0x22, 0x0a, 0x22, 0x0a, 0x2e, 0x0b, 0x38, 0x0c, 0x30, 0x06,
   0x20, 0x00, 0x00, 0x00 };
